<svg version="1.1" xmlns="http://www.w3.org/2000/svg" xmlns:xlink="http://www.w3.org/1999/xlink" width="380.88654" height="25" viewBox="0,0,380.88654,25"><g transform="translate(-49.55673,-167.5)"><g data-paper-data="{&quot;isPaintingLayer&quot;:true}" fill="none" fill-rule="nonzero" stroke-linecap="round" stroke-linejoin="miter" stroke-miterlimit="10" stroke-dasharray="" stroke-dashoffset="0" style="mix-blend-mode: normal"><path d="M417.94327,180h-355.88654" stroke-opacity="0.50196" stroke="#000000" stroke-width="25"/><path d="M62.7881,180.19747h7.92817" stroke="#7dff00" stroke-width="20"/><path d="M72.7881,180.19747h7.92817" stroke="#7dff00" stroke-width="20"/><path d="M82.7881,180.19747h7.92817" stroke="#7dff00" stroke-width="20"/><path d="M92.7881,180.19747h7.92817" stroke="#7dff00" stroke-width="20"/><path d="M102.7881,180.19747h7.92817" stroke="#7dff00" stroke-width="20"/><path d="M112.7881,180.19747h7.92817" stroke="#7dff00" stroke-width="20"/><path d="M122.7881,180.19747h7.92817" stroke="#7dff00" stroke-width="20"/><path d="M132.7881,180.19747h7.92817" stroke="#7dff00" stroke-width="20"/><path d="M142.7881,180.19747h7.92817" stroke="#7dff00" stroke-width="20"/><path d="M152.7881,180.19747h7.92817" stroke="#7dff00" stroke-width="20"/><path d="M162.7881,180.19747h7.92817" stroke="#7dff00" stroke-width="20"/><path d="M172.7881,180.19747h7.92817" stroke="#7dff00" stroke-width="20"/><path d="M182.7881,180.19747h7.92817" stroke="#7dff00" stroke-width="20"/><path d="M192.7881,180.19747h7.92817" stroke="#7dff00" stroke-width="20"/><path d="M202.7881,180.19747h7.92817" stroke="#7dff00" stroke-width="20"/><path d="M212.7881,180.19747h7.92817" stroke="#7dff00" stroke-width="20"/><path d="M222.7881,180.19747h7.92817" stroke="#7dff00" stroke-width="20"/><path d="M232.7881,180.19747h7.92817" stroke="#7dff00" stroke-width="20"/><path d="M242.7881,180.19747h7.92817" stroke="#7dff00" stroke-width="20"/><path d="M252.7881,180.19747h7.92817" stroke="#7dff00" stroke-width="20"/><path d="M262.7881,180.19747h7.92817" stroke="#7dff00" stroke-width="20"/><path d="M280.71627,180.19747h-7.92817" stroke="#7dff00" stroke-width="20"/><path d="M282.7881,180.19747h7.92817" stroke="#7dff00" stroke-width="20"/><path d="M292.7881,180.19747h7.92817" stroke="#7dff00" stroke-width="20"/></g></g></svg>