<svg version="1.1" xmlns="http://www.w3.org/2000/svg" xmlns:xlink="http://www.w3.org/1999/xlink" width="49.45846" height="205.23506" viewBox="0,0,49.45846,205.23506"><defs><linearGradient x1="239.99999" y1="237.61584" x2="239.99999" y2="32.38185" gradientUnits="userSpaceOnUse" id="color-1"><stop offset="0" stop-color="#3dffff"/><stop offset="1" stop-color="#3dffff" stop-opacity="0"/></linearGradient></defs><g transform="translate(-215.27077,-32.38247)"><g data-paper-data="{&quot;isPaintingLayer&quot;:true}" fill="url(#color-1)" fill-rule="nonzero" stroke="none" stroke-width="1" stroke-linecap="butt" stroke-linejoin="miter" stroke-miterlimit="10" stroke-dasharray="" stroke-dashoffset="0" style="mix-blend-mode: normal"><path d="M215.38542,237.61753c-0.03372,-0.19219 -0.11464,-0.36416 -0.11464,-0.5631c0,-1.86127 1.51059,-3.37186 3.37186,-3.37186h10.56404v-5.75914c0,-4.99372 3.65847,-9.12425 8.42965,-9.92002v-5.72879c-4.77119,-0.79576 -8.42965,-4.92629 -8.42965,-9.92002v-11.52164c0,-4.99372 3.65847,-9.12425 8.42965,-9.92002v-5.72879c-4.77119,-0.79576 -8.42965,-4.92629 -8.42965,-9.92002v-11.52164c0,-4.99372 3.65847,-9.12425 8.42965,-9.92002v-5.72879c-4.77119,-0.79576 -8.42965,-4.92629 -8.42965,-9.92002v-11.52164c0,-4.99372 3.65847,-9.12425 8.42965,-9.92002v-5.72879c-4.77119,-0.79576 -8.42965,-4.92629 -8.42965,-9.92002v-11.52164c0,-4.99372 3.65847,-9.12425 8.42965,-9.92002v-5.72879c-4.77119,-0.79576 -8.42965,-4.92629 -8.42965,-9.92002v-11.52164c0,-5.56357 4.52841,-10.08861 10.08861,-10.08861h1.40607c5.56357,0 10.08861,4.52841 10.08861,10.08861v11.52164c0,4.99372 -3.65847,9.12425 -8.42965,9.92002v5.72879c4.77119,0.79576 8.42965,4.92629 8.42965,9.92002v11.52164c0,4.99372 -3.65847,9.12425 -8.42965,9.92002v5.72879c4.77119,0.79576 8.42965,4.92629 8.42965,9.92002v11.52164c0,4.99372 -3.65847,9.12425 -8.42965,9.92002v5.72879c4.77119,0.79576 8.42965,4.92629 8.42965,9.92002v11.52164c0,4.99372 -3.65847,9.12425 -8.42965,9.92002v5.72879c4.77119,0.79576 8.42965,4.92629 8.42965,9.92002v11.52164c0,4.99372 -3.65847,9.12425 -8.42965,9.92002v5.72879c4.77119,0.79576 8.42965,4.92629 8.42965,9.92002v5.75914h10.56741c1.86127,0 3.37186,1.51059 3.37186,3.37186c0,0.20231 -0.08093,0.37428 -0.11464,0.5631zM237.63632,59.06742v-2.40751c0,-1.30491 1.05539,-2.3603 2.3603,-2.3603c1.30491,0 2.3603,1.05539 2.3603,2.3603v2.40414c2.1445,-0.70135 3.70905,-2.69749 3.70905,-5.07465v-11.52164c0,-2.95712 -2.40751,-5.36463 -5.36463,-5.36463h-1.40607c-2.95712,0 -5.36463,2.40751 -5.36463,5.36463v11.52164c0,2.37716 1.56454,4.37667 3.70567,5.07802zM237.63969,96.15788v-2.40751c0,-1.30491 1.05539,-2.3603 2.3603,-2.3603c1.30491,0 2.3603,1.05539 2.3603,2.3603v2.40414c2.1445,-0.70135 3.70905,-2.69749 3.70905,-5.07465v-11.52164c0,-2.37379 -1.56454,-4.3733 -3.70905,-5.07465v2.40751c0,1.30491 -1.05539,2.3603 -2.3603,2.3603c-1.30491,0 -2.3603,-1.05539 -2.3603,-2.3603v-2.40751c-2.1445,0.70135 -3.70905,2.69749 -3.70905,5.07465v11.52164c0,2.37716 1.56454,4.37667 3.70905,5.07802zM237.63969,133.24835v-2.40751c0,-1.30491 1.05539,-2.3603 2.3603,-2.3603c1.30491,0 2.3603,1.05539 2.3603,2.3603v2.40414c2.1445,-0.70135 3.70905,-2.69749 3.70905,-5.07465v-11.52164c0,-2.37379 -1.56454,-4.3733 -3.70905,-5.07465v2.40751c0,1.30491 -1.05539,2.3603 -2.3603,2.3603c-1.30491,0 -2.3603,-1.05539 -2.3603,-2.3603v-2.40751c-2.1445,0.70135 -3.70905,2.69749 -3.70905,5.07465v11.52164c0,2.37716 1.56454,4.37667 3.70905,5.07802zM237.63969,170.3388v-2.40751c0,-1.30491 1.05539,-2.3603 2.3603,-2.3603c1.30491,0 2.3603,1.05539 2.3603,2.3603v2.40414c2.1445,-0.70135 3.70905,-2.69749 3.70905,-5.07465v-11.52164c0,-2.37379 -1.56454,-4.3733 -3.70905,-5.07465v2.40751c0,1.30491 -1.05539,2.3603 -2.3603,2.3603c-1.30491,0 -2.3603,-1.05539 -2.3603,-2.3603v-2.40751c-2.1445,0.70135 -3.70905,2.69749 -3.70905,5.07465v11.52164c0,2.37716 1.56454,4.37667 3.70905,5.07802zM237.63969,207.42927v-2.40751c0,-1.30491 1.05539,-2.3603 2.3603,-2.3603c1.30491,0 2.3603,1.05539 2.3603,2.3603v2.40414c2.1445,-0.70135 3.70905,-2.69749 3.70905,-5.07465v-11.52164c0,-2.37379 -1.56454,-4.3733 -3.70905,-5.07465v2.40751c0,1.30491 -1.05539,2.3603 -2.3603,2.3603c-1.30491,0 -2.3603,-1.05539 -2.3603,-2.3603v-2.40751c-2.1445,0.70135 -3.70905,2.69749 -3.70905,5.07465v11.52164c0,2.37716 1.56454,4.37667 3.70905,5.07802zM233.93064,233.68257h12.1387v-5.75914c0,-2.37379 -1.56454,-4.3733 -3.70905,-5.07465v2.40751c0,1.30491 -1.05539,2.3603 -2.3603,2.3603c-1.30491,0 -2.3603,-1.05539 -2.3603,-2.3603v-2.40751c-2.1445,0.70135 -3.70905,2.69749 -3.70905,5.07465z"/></g></g></svg>