<svg version="1.1" xmlns="http://www.w3.org/2000/svg" xmlns:xlink="http://www.w3.org/1999/xlink" width="997.64077" height="998.36111" viewBox="0,0,997.64077,998.36111"><g transform="translate(48.75,319.18055)"><g data-paper-data="{&quot;isPaintingLayer&quot;:true}" fill="none" fill-rule="nonzero" stroke-linecap="round" stroke-linejoin="miter" stroke-miterlimit="10" stroke-dasharray="" stroke-dashoffset="0" style="mix-blend-mode: normal"><path d="M240.00001,-318.43056v996.86111" stroke="#000000" stroke-width="0.5"/><path d="M272.00001,-318.43056v996.86111" stroke="#000000" stroke-width="0.5"/><path d="M304.00001,-318.43056v996.86111" stroke="#000000" stroke-width="0.5"/><path d="M336.00001,678.43057v-996.86111" stroke="#000000" stroke-width="0.5"/><path d="M368.00001,-318.43056v996.86111" stroke="#000000" stroke-width="0.5"/><path d="M400.00001,-318.43056v996.86111" stroke="#000000" stroke-width="0.5"/><path d="M432.00001,-318.43056v996.86111" stroke="#000000" stroke-width="0.5"/><path d="M464.00001,678.43056v-996.86111" stroke="#000000" stroke-width="0.5"/><path d="M496.00001,678.43056v-996.86111" stroke="#000000" stroke-width="0.5"/><path d="M-15.99999,-318.43056v996.86111" stroke="#000000" stroke-width="0.5"/><path d="M16.00001,-318.43056v996.86111" stroke="#000000" stroke-width="0.5"/><path d="M48.00001,678.43057v-996.86111" stroke="#000000" stroke-width="0.5"/><path d="M80.00001,-318.43056v996.86111" stroke="#000000" stroke-width="0.5"/><path d="M112.00001,-318.43056v996.86111" stroke="#000000" stroke-width="0.5"/><path d="M144,-318.43056v996.86111" stroke="#000000" stroke-width="0.5"/><path d="M176.00001,-318.43056v996.86111" stroke="#000000" stroke-width="0.5"/><path d="M208.00001,-318.43056v996.86111" stroke="#000000" stroke-width="0.5"/><path d="M528.00001,-318.43056v996.86111" stroke="#000000" stroke-width="0.5"/><path d="M948.64078,468.00001h-996.86111" stroke="#000000" stroke-width="0.5"/><path d="M-48.22033,180.00001h786.6509" stroke="#000000" stroke-width="0.5"/><path d="M738.43057,148h-786.6509" stroke="#000000" stroke-width="0.5"/><path d="M-48.22033,116.00001h786.6509" stroke="#000000" stroke-width="0.5"/><path d="M738.43057,84.00001h-786.6509" stroke="#000000" stroke-width="0.5"/><path d="M-48.22033,52.00001h786.6509" stroke="#000000" stroke-width="0.5"/><path d="M-48.22033,20.00001h786.6509" stroke="#000000" stroke-width="0.5"/><path d="M-48.22033,-11.99999h786.6509" stroke="#000000" stroke-width="0.5"/><path d="M-48.22033,-43.99999h786.6509" stroke="#000000" stroke-width="0.5"/><path d="M-48.22033,-75.99999h786.6509" stroke="#000000" stroke-width="0.5"/><path d="M-48.22033,436.00001h786.6509" stroke="#000000" stroke-width="0.5"/><path d="M-48.22033,404.00001h786.6509" stroke="#000000" stroke-width="0.5"/><path d="M738.43057,372.00001h-786.6509" stroke="#000000" stroke-width="0.5"/><path d="M-48.22033,340.00001h786.6509" stroke="#000000" stroke-width="0.5"/><path d="M-48.22033,308.00001h786.6509" stroke="#000000" stroke-width="0.5"/><path d="M738.43057,276.00001h-786.6509" stroke="#000000" stroke-width="0.5"/><path d="M-48.22033,244.00001h786.6509" stroke="#000000" stroke-width="0.5"/><path d="M738.43057,212.00001h-786.6509" stroke="#000000" stroke-width="0.5"/><path d="M738.43057,-107.99999h-786.6509" stroke="#000000" stroke-width="0.5"/><path d="M560.00001,-318.43056v996.86111" stroke="#000000" stroke-width="0.5"/><path d="M592.00001,678.43056v-996.86111" stroke="#000000" stroke-width="0.5"/><path d="M-47.99999,-318.43054v996.86111" stroke="#99ff80" stroke-width="1.5"/></g></g></svg>